# xmcd
#
# Track frame offsets: 
#        150
#        16425
#        36675
#        57525
#        83550
#        105300
#        133350
#        152625
#        176625
#        207000
#        224850
#        250500
#        269925
#        282600
#
# Disc length: 4222 seconds
#
# Revision: 0
# Processed by: cddbd v1.5.2PL0 Copyright (c) Steve Scherf et al.
# Submitted via: ExactAudioCopy v1.3
#
DISCID=de107c0e
DTITLE=WRFG - 2nd Annual Back Porch Blues Festival
DYEAR=2001
DGENRE=Blues
TTITLE0=WRFG - Steve Arvey and Friends
TTITLE1=Someday After Awhile - BlueSolution
TTITLE2=Marie - Slim Fatz
TTITLE3=It's A Mean Old Man's World - Heaven Davis and E.G. Knight
TTITLE4=Bad Boy - The Electromatics
TTITLE5=Nice and Warm - John McKnight and Joel Williams
TTITLE6=Voodoo Daddy Hoochie Coochie Big Boss Man - X Miss America
TTITLE7=Let Me Love You Baby - Michael Lowry
TTITLE8=Let the Healing Begin - E.G. Knight
TTITLE9=Zydeco En Tout Partout - Zydeco T
TTITLE10=Jessica - John Paskoff
TTITLE11=Let My Daddy Do That - Delta Moon
TTITLE12=Prodigal Son - Slim Fatz
TTITLE13=Mercy - Liz Melendez Band
EXTD=
EXTT0=
EXTT1=
EXTT2=
EXTT3=
EXTT4=
EXTT5=
EXTT6=
EXTT7=
EXTT8=
EXTT9=
EXTT10=
EXTT11=
EXTT12=
EXTT13=
PLAYORDER=
